<svg width="486" height="742" viewBox="0 0 486 742" fill="none" xmlns="http://www.w3.org/2000/svg">
<mask id="path-1-inside-1_5503_35" fill="white">
<path fill-rule="evenodd" clip-rule="evenodd" d="M485 499V243C485 109.347 376.653 1 243 1C109.347 1 1 109.347 1 243V499C1 632.653 109.347 741 243 741C376.653 741 485 632.653 485 499ZM243 0C108.795 0 0 108.795 0 243V499C0 633.205 108.795 742 243 742C377.205 742 486 633.205 486 499V243C486 108.795 377.205 0 243 0Z"/>
</mask>
<path d="M486 499V243H484V499H486ZM486 243C486 108.795 377.205 0 243 0V2C376.101 2 484 109.899 484 243H486ZM243 0C108.795 0 0 108.795 0 243H2C2 109.899 109.899 2 243 2V0ZM0 243V499H2V243H0ZM0 499C0 633.205 108.795 742 243 742V740C109.899 740 2 632.101 2 499H0ZM243 742C377.205 742 486 633.205 486 499H484C484 632.101 376.101 740 243 740V742ZM243 -1C108.243 -1 -1 108.243 -1 243H1C1 109.347 109.347 1 243 1V-1ZM-1 243V499H1V243H-1ZM-1 499C-1 633.757 108.243 743 243 743V741C109.347 741 1 632.653 1 499H-1ZM243 743C377.757 743 487 633.757 487 499H485C485 632.653 376.653 741 243 741V743ZM487 499V243H485V499H487ZM487 243C487 108.243 377.757 -1 243 -1V1C376.653 1 485 109.347 485 243H487Z" fill="url(#paint0_linear_5503_35)" mask="url(#path-1-inside-1_5503_35)"/>
<defs>
<linearGradient id="paint0_linear_5503_35" x1="258" y1="755" x2="257" y2="171" gradientUnits="userSpaceOnUse">
<stop stop-color="white"/>
<stop offset="0.411317" stop-color="white" stop-opacity="0.441769"/>
<stop offset="1" stop-color="white" stop-opacity="0"/>
</linearGradient>
</defs>
</svg>
